<svg width="447" height="52" viewBox="0 0 447 52" fill="none" xmlns="http://www.w3.org/2000/svg">
<path fill-rule="evenodd" clip-rule="evenodd" d="M0 25.7819V51.5594H21.2767H42.5533V34.8179V18.0764H30.1042H17.6551V25.566V33.0557H22.1821H26.709V34.8179V36.5802H21.0503H15.3916V25.7863V14.9925H28.9833H42.575L42.451 7.61298L42.327 0.233499L21.1635 0.118948L0 0.00440996V25.7819ZM97.7821 25.7863V51.5594H105.478H113.174V33.2759V14.9925H116.343H119.511V33.2759V51.5594H127.207H134.903V33.2759V14.9925H137.846H140.788V33.2759V51.5594H148.714H156.64L156.523 25.8965L156.406 0.233499L143.435 0.116743L130.463 0L128.974 1.87901C128.155 2.91257 127.405 3.85715 127.307 3.97831C127.21 4.09947 126.724 3.70296 126.229 3.09718C123.437 -0.315886 125.095 0.0132164 110.687 0.0132164H97.7821V25.7863ZM162.97 25.7863V51.5683L184.134 51.4537L205.297 51.3392L205.421 43.9597L205.545 36.5802H191.954H178.362V35.0382V33.4962H185.379H192.395V26.0066V18.517H185.379H178.362V16.7547V14.9925H191.954H205.545L205.421 7.61298L205.297 0.233499L184.134 0.118948L162.97 0.00440996V25.7863ZM249.435 25.566V51.1189H270.485H291.536V25.566V0.0132164H270.485H249.435V25.566ZM300.589 12.9615V25.9097L308.793 38.7478L316.996 51.5859L322.402 51.4625L327.808 51.3392L335.249 38.5627L342.69 25.7863V12.8998V0.0132164H334.994H327.298V11.9015V23.7892L325.001 29.3932C321.363 38.268 322.004 38.1557 318.773 30.4863L315.981 23.8593V11.9362V0.0132164H308.285H300.589V12.9615ZM347.217 25.7863V51.5683L368.38 51.4537L389.544 51.3392L389.668 43.9597L389.792 36.5802H376.2H362.609V35.0382V33.4962H369.625H376.642V26.0066V18.517H369.625H362.609V16.7547V14.9925H376.2H389.792L389.668 7.61298L389.544 0.233499L368.38 0.118948L347.217 0.00440996V25.7863ZM48.8911 26.0066V51.5594H56.5869H64.2827V45.6118V39.6642H69.9414H75.6001V45.6118V51.5594H83.2959H90.9917V26.0066V0.453782H69.9414H48.8911V26.0066ZM396.108 26.2269V52H403.804H411.5V46.7132V41.4264H415.786H420.073L424.175 46.7132L428.277 52H437.797C445.292 52 447.244 51.8828 446.977 51.4493C446.79 51.1466 444.181 47.7322 441.178 43.8619C438.176 39.9919 435.468 36.4938 435.161 36.089C434.68 35.4532 434.943 35.103 437.085 33.5288L439.567 31.7053V16.0798V0.453782H417.837H396.108V26.2269ZM75.6001 19.8387V24.6849H69.9414H64.2827V19.8387V14.9925H69.9414H75.6001V19.8387ZM276.144 26.0066V37.0208H270.485H264.827V26.0066V14.9925H270.485H276.144V26.0066ZM424.175 20.7198V26.4472H417.837H411.5V20.7198V14.9925H417.837H424.175V20.7198Z" fill="#EF6363"/>
</svg>
