<svg width="767" height="95" viewBox="0 0 767 95" fill="none" xmlns="http://www.w3.org/2000/svg">
<g filter="url(#filter0_d_15_17)">
<path fill-rule="evenodd" clip-rule="evenodd" d="M4.28075 0.268203C4.1264 0.420656 4 19.9832 4 43.7406V86.9353H14.8464H25.6928V70.66V54.3847H37.3735H49.0542V43.6718V32.9589H37.3735H25.6928V27.1905V21.422H45.3068H64.9208L64.8094 10.8121L64.6981 0.202277L34.6298 0.0963887C18.0924 0.038292 4.43511 0.115751 4.28075 0.268203ZM74.3693 0.264079C74.2129 0.419004 74.0844 19.9832 74.0844 43.7406V86.9353H104.538H134.991V76.4285V65.9216H115.387H95.7821L95.6754 33.0619L95.5686 0.202277L85.1114 0.0922643C79.3603 0.0316954 74.5262 0.109154 74.3693 0.264079ZM144.867 0.268203C144.712 0.420656 144.586 19.9832 144.586 43.7406V86.9353H155.224H165.862V70.66V54.3847H174.831H183.8V70.66V86.9353H194.648H205.496L205.39 43.5688L205.284 0.202277L175.216 0.0963887C158.678 0.038292 145.021 0.115751 144.867 0.268203ZM214.98 0.239773C214.81 0.407883 214.67 19.9832 214.67 43.7406V86.9353H225.517H236.363V70.6983V54.4617L247.939 54.2747C256.925 54.1292 260.029 53.9389 261.81 53.423C271.283 50.6793 279.03 42.8012 281.201 33.7055C281.995 30.3804 281.998 24.0137 281.208 20.703C279.019 11.5315 271.182 3.64111 261.602 0.962479C259.43 0.354729 256.204 0.240599 237.194 0.0980359C225.147 0.00738855 215.15 0.0712513 214.98 0.239773ZM291.322 0.239773C291.151 0.407883 291.012 19.9832 291.012 43.7406V86.9353H301.859H312.705V70.6983V54.4617L324.281 54.2747C333.267 54.1292 336.371 53.9389 338.152 53.423C347.624 50.6793 355.372 42.8012 357.543 33.7055C358.337 30.3804 358.34 24.0137 357.55 20.703C355.36 11.5315 347.524 3.64111 337.944 0.962479C335.771 0.354729 332.546 0.240599 313.536 0.0980359C301.489 0.00738855 291.492 0.0712513 291.322 0.239773ZM368.067 0.299098C367.97 0.472564 374.239 12.3882 381.999 26.7784L396.108 52.9426L396.123 69.9389L396.139 86.9353H406.985H417.831L417.837 69.7329L417.842 52.5305L431.775 26.5724C439.438 12.2955 445.572 0.472564 445.405 0.299098C445.238 0.125632 439.501 0.0329248 432.656 0.0930816L420.211 0.202277L413.507 12.6321L406.803 25.0619L402.443 16.9584C400.045 12.5015 397.033 6.90812 395.749 4.52863L393.415 0.202277L380.83 0.0930816C373.908 0.0333368 368.165 0.126044 368.067 0.299098ZM513.641 0.271083C513.488 0.421887 513.363 19.9832 513.363 43.7406V86.9353H535.385C559.452 86.9353 559.66 86.918 564.996 84.4652C571.781 81.3457 576.903 75.5377 579.531 67.9818C580.154 66.189 580.316 64.5537 580.307 60.1531C580.295 53.7782 579.663 51.376 576.686 46.3859C575.339 44.1287 575.082 43.4015 575.448 42.8836C576.896 40.8378 578.49 37.7801 579.334 35.4311C580.643 31.7883 580.752 22.874 579.531 19.3618C575.816 8.68069 567.244 1.63903 556.471 0.420239C552.426 -0.0375303 514.089 -0.171029 513.641 0.271083ZM590.407 0.264079C590.251 0.419004 590.122 19.9832 590.122 43.7406V86.9353H600.971H611.819L611.713 43.5688L611.606 0.202277L601.149 0.0922643C595.398 0.0316954 590.564 0.109154 590.407 0.264079ZM621.303 0.239773C621.132 0.407883 620.993 19.9832 620.993 43.7406V86.9353H631.839H642.685V70.66V54.3847H648.69H654.694L656.563 59.4321C657.59 62.208 660.285 69.531 662.552 75.7057L666.673 86.9316L677.415 86.9337C683.323 86.9345 688.157 86.8653 688.157 86.78C688.157 86.6432 675.682 52.6859 675.043 51.0831C674.871 50.6529 675.59 49.8877 677.368 48.6109C682.115 45.2005 685.838 39.7225 687.333 33.9495C688.327 30.1114 688.412 24.3961 687.53 20.703C685.341 11.5315 677.504 3.64111 667.924 0.962479C665.752 0.354729 662.527 0.240599 643.517 0.0980359C631.469 0.00738855 621.473 0.0712513 621.303 0.239773ZM698.065 0.224118C697.893 0.40088 697.752 19.998 697.752 43.7728V87L712.457 86.8241C729.487 86.6209 730.469 86.4615 738.426 82.6201C750.04 77.0119 758.541 66.8026 761.895 54.4337C762.828 50.9908 762.973 49.6047 762.998 43.8778C763.027 37.1514 762.711 34.8461 761.08 29.9148C757.076 17.8109 746.121 6.77627 734.005 2.64563C728.065 0.620487 725.879 0.373684 711.727 0.131408C704.385 0.00532577 698.237 0.0473557 698.065 0.224118ZM183.8 27.1905V32.9589H175.039H166.279V27.1905V21.422H175.039H183.8V27.1905ZM257.017 22.0153C261.044 23.6771 261.201 30.3083 257.261 32.3207C256.237 32.844 254.241 32.9589 246.187 32.9589H236.363V27.1905V21.422H245.971C253.39 21.422 255.907 21.5571 257.017 22.0153ZM333.359 22.0153C337.386 23.6771 337.543 30.3083 333.603 32.3207C332.578 32.844 330.583 32.9589 322.529 32.9589H312.705V27.1905V21.422H322.313C329.732 21.422 332.249 21.5571 333.359 22.0153ZM555.71 22.0153C559.737 23.6771 559.894 30.3083 555.954 32.3207C554.929 32.844 552.934 32.9589 544.88 32.9589H535.056V27.1905V21.422H544.664C552.083 21.422 554.6 21.5571 555.71 22.0153ZM663.426 22.1101C667.526 24.0318 667.47 30.661 663.339 32.3656C662.23 32.8238 659.712 32.9589 652.294 32.9589H642.685V27.1905V21.422H652.322C660.459 21.422 662.186 21.5291 663.426 22.1101ZM725.483 22.3198C728.73 23.1422 732.132 25.209 735.12 28.1748C739.607 32.6277 741.54 37.2309 741.549 43.4823C741.558 49.2025 739.705 54.102 735.914 58.3826C732.466 62.2755 726.745 65.1721 721.635 65.6122L719.445 65.8005V43.5725V21.3445L721.635 21.6222C722.839 21.7747 724.571 22.0887 725.483 22.3198ZM557.407 56.1296C559.912 58.8305 559.319 63.0563 556.171 64.9385C555.013 65.6307 553.791 65.7296 544.964 65.8454L535.056 65.9756V60.1602V54.3443L545.518 54.4675L555.98 54.5907L557.407 56.1296Z" fill="#F9F6E1"/>
</g>
<defs>
<filter id="filter0_d_15_17" x="0" y="0" width="767" height="95" filterUnits="userSpaceOnUse" color-interpolation-filters="sRGB">
<feFlood flood-opacity="0" result="BackgroundImageFix"/>
<feColorMatrix in="SourceAlpha" type="matrix" values="0 0 0 0 0 0 0 0 0 0 0 0 0 0 0 0 0 0 127 0" result="hardAlpha"/>
<feOffset dy="4"/>
<feGaussianBlur stdDeviation="2"/>
<feComposite in2="hardAlpha" operator="out"/>
<feColorMatrix type="matrix" values="0 0 0 0 0 0 0 0 0 0 0 0 0 0 0 0 0 0 0.25 0"/>
<feBlend mode="normal" in2="BackgroundImageFix" result="effect1_dropShadow_15_17"/>
<feBlend mode="normal" in="SourceGraphic" in2="effect1_dropShadow_15_17" result="shape"/>
</filter>
</defs>
</svg>
